<svg xmlns="http://www.w3.org/2000/svg" xmlns:xlink="http://www.w3.org/1999/xlink" width="500" zoomAndPan="magnify" viewBox="0 0 375 374.999991" height="500" preserveAspectRatio="xMidYMid meet" version="1.0"><defs><g/><clipPath id="cdaabe8b99"><path d="M 51.375 82.511719 L 323.625 82.511719 L 323.625 292.511719 L 51.375 292.511719 Z M 51.375 82.511719 " clip-rule="nonzero"/></clipPath></defs><rect x="-37.5" width="450" fill="#ffffff" y="-37.499999" height="449.999989" fill-opacity="1"/><rect x="-37.5" width="450" fill="#c09b55" y="-37.499999" height="449.999989" fill-opacity="1"/><g clip-path="url(#cdaabe8b99)"><path fill="#010101" d="M 304.824219 221.859375 L 322.128906 211.523438 L 319.640625 209.835938 C 312.175781 204.820312 303.136719 200.339844 292.875 196.628906 L 292.875 180.160156 L 292.03125 179.585938 C 290.195312 178.363281 288.242188 177.136719 286.25 175.988281 C 287.132812 169.441406 287.589844 162.738281 287.589844 156 C 287.589844 144.703125 286.289062 133.410156 283.761719 122.535156 L 282.421875 116.75 L 187.5 82.519531 L 92.574219 116.675781 L 91.234375 122.457031 C 88.707031 133.371094 87.40625 144.628906 87.40625 155.921875 C 87.40625 162.664062 87.863281 169.324219 88.746094 175.910156 C 86.714844 177.058594 84.800781 178.285156 82.964844 179.511719 L 82.121094 180.085938 L 82.121094 196.550781 C 71.859375 200.265625 62.785156 204.746094 55.355469 209.761719 L 52.867188 211.445312 L 70.175781 221.785156 L 51.375 258.734375 L 57.5 254.601562 C 69.0625 246.789062 84.726562 240.394531 102.761719 236.027344 L 104.214844 235.683594 L 104.214844 224.121094 C 107.316406 229.941406 110.800781 235.570312 114.746094 240.96875 C 132.089844 264.898438 156.789062 282.820312 184.242188 291.4375 L 187.5 292.46875 L 190.753906 291.4375 C 218.246094 282.859375 242.90625 264.9375 260.25 240.96875 C 264.15625 235.570312 267.679688 229.941406 270.78125 224.121094 L 270.78125 235.722656 L 272.238281 236.066406 C 290.308594 240.433594 305.972656 246.863281 317.496094 254.636719 L 323.625 258.773438 Z M 96.402344 155.960938 C 96.402344 145.355469 97.628906 134.785156 100.003906 124.523438 L 100.234375 123.53125 L 187.460938 92.054688 L 274.6875 123.53125 L 274.917969 124.523438 C 277.289062 134.75 278.515625 145.316406 278.515625 155.960938 C 278.515625 161.207031 278.210938 166.378906 277.675781 171.46875 C 276.488281 170.894531 275.261719 170.359375 273.996094 169.824219 C 274.457031 165.265625 274.6875 160.632812 274.6875 155.960938 C 274.6875 145.96875 273.578125 136.050781 271.433594 126.441406 L 187.460938 96.152344 L 103.488281 126.441406 C 101.304688 136.050781 100.234375 146.007812 100.234375 155.960938 C 100.234375 160.632812 100.460938 165.226562 100.921875 169.824219 C 99.660156 170.359375 98.433594 170.933594 97.246094 171.46875 C 96.710938 166.378906 96.402344 161.167969 96.402344 155.960938 Z M 61.175781 247.824219 L 75.152344 220.40625 L 59.988281 211.332031 C 66.34375 207.347656 73.773438 203.789062 82.082031 200.6875 L 82.082031 226.417969 L 100.347656 232.734375 C 85.335938 236.449219 71.972656 241.621094 61.175781 247.824219 Z M 252.9375 235.683594 C 244.898438 246.828125 235.246094 256.515625 224.296875 264.480469 C 213.191406 272.597656 200.976562 278.761719 188.074219 282.78125 L 187.5 282.972656 L 186.925781 282.78125 C 173.980469 278.722656 161.804688 272.558594 150.699219 264.480469 C 139.75 256.476562 130.101562 246.789062 122.058594 235.683594 C 116.773438 228.371094 112.257812 220.597656 108.582031 212.519531 C 109.765625 212.058594 110.953125 211.636719 112.179688 211.179688 C 115.742188 218.949219 120.066406 226.417969 125.160156 233.425781 C 132.972656 244.222656 142.351562 253.644531 152.960938 261.378906 C 163.566406 269.113281 175.167969 275.046875 187.5 278.953125 C 199.828125 275.046875 211.429688 269.113281 222.035156 261.378906 C 232.644531 253.605469 242.023438 244.222656 249.835938 233.425781 C 254.929688 226.417969 259.257812 218.949219 262.816406 211.179688 C 264.042969 211.597656 265.230469 212.058594 266.417969 212.519531 C 262.742188 220.636719 258.222656 228.371094 252.9375 235.683594 Z M 232.144531 240.46875 C 231.6875 240.96875 231.1875 241.429688 230.730469 241.925781 C 226.363281 246.328125 221.652344 250.386719 216.636719 254.0625 C 216.253906 254.332031 215.910156 254.601562 215.527344 254.867188 L 215.527344 200.878906 C 221.195312 201.488281 226.746094 202.292969 232.144531 203.25 Z M 177.886719 221.058594 C 176.777344 221.824219 175.703125 222.664062 174.671875 223.546875 C 174.402344 222.972656 174.132812 222.398438 173.867188 221.859375 C 172.757812 219.371094 172.027344 217.035156 171.644531 214.855469 C 173.523438 213.207031 175.628906 211.867188 177.964844 210.832031 C 178.421875 210.640625 178.882812 210.449219 179.34375 210.296875 C 177.3125 213.628906 176.816406 217.304688 177.886719 221.058594 Z M 186.347656 229.25 C 189.296875 230.398438 192.707031 231.203125 196 231.96875 C 199.40625 232.773438 202.929688 233.617188 205.6875 234.765625 C 208.253906 235.875 209.820312 237.101562 210.585938 238.632812 C 210.359375 239.589844 210.050781 240.507812 209.667969 241.425781 C 208.0625 245.523438 205.378906 249.046875 201.933594 251.652344 C 198.371094 249.507812 194.851562 246.941406 191.519531 244.109375 C 185.199219 238.710938 179.992188 232.699219 176.394531 226.648438 C 177.3125 225.804688 178.308594 225 179.34375 224.273438 C 180.722656 226.304688 183.019531 227.949219 186.347656 229.25 Z M 173.828125 229.175781 C 177.582031 235.300781 182.902344 241.351562 189.257812 246.789062 C 192.285156 249.390625 195.460938 251.726562 198.679688 253.757812 C 198.105469 254.0625 197.570312 254.332031 196.957031 254.5625 C 192.167969 256.628906 186.960938 257.089844 181.945312 255.902344 C 180.03125 254.332031 177.503906 250.808594 174.632812 238.363281 C 173.980469 235.570312 173.140625 233.195312 172.027344 231.242188 C 172.601562 230.515625 173.214844 229.824219 173.828125 229.175781 Z M 175.933594 253.566406 C 171.800781 251.269531 168.390625 247.824219 166.246094 243.570312 C 166.476562 242.117188 166.898438 240.625 167.472656 239.09375 C 168.085938 237.523438 168.851562 235.992188 169.769531 234.457031 C 170.34375 235.800781 170.839844 237.367188 171.261719 239.128906 C 172.757812 245.679688 174.25 250.3125 175.933594 253.566406 Z M 167.050781 250.847656 C 167.472656 251.308594 167.894531 251.765625 168.351562 252.226562 C 170.957031 254.792969 174.019531 256.78125 177.464844 258.121094 C 178.5 258.542969 179.535156 258.886719 180.605469 259.15625 C 180.914062 259.234375 181.179688 259.308594 181.488281 259.386719 C 182.214844 259.539062 182.941406 259.65625 183.667969 259.769531 L 183.667969 268 C 177.925781 265.78125 172.375 263.0625 167.089844 259.882812 L 167.089844 250.847656 Z M 191.289062 259.769531 C 193.703125 259.425781 196.074219 258.773438 198.335938 257.777344 C 199.828125 257.128906 201.246094 256.359375 202.585938 255.480469 C 203.042969 255.175781 203.542969 254.828125 203.964844 254.484375 C 204.996094 253.679688 206.03125 252.800781 206.949219 251.84375 C 207.257812 251.535156 207.5625 251.191406 207.871094 250.847656 L 207.871094 259.847656 C 207.371094 260.152344 206.875 260.421875 206.375 260.726562 C 201.511719 263.523438 196.457031 265.972656 191.25 268 L 191.25 259.769531 Z M 211.277344 234.113281 C 210.167969 233.15625 208.75 232.316406 207.027344 231.585938 C 204 230.285156 200.324219 229.441406 196.765625 228.601562 C 193.28125 227.796875 189.679688 226.953125 186.886719 225.726562 C 184.625 224.769531 183.132812 223.660156 182.214844 222.398438 C 190.101562 217.609375 199.214844 215.964844 206.261719 218.03125 C 207.484375 219.640625 208.558594 221.363281 209.363281 223.238281 C 210.855469 226.6875 211.507812 230.398438 211.277344 234.113281 Z M 207.90625 214.585938 C 207.484375 214.125 207.066406 213.628906 206.605469 213.207031 C 204 210.640625 200.9375 208.652344 197.492188 207.308594 C 195.460938 206.507812 193.394531 205.96875 191.289062 205.664062 L 191.289062 199.382812 C 196.878906 199.460938 202.433594 199.730469 207.871094 200.148438 L 207.871094 214.585938 Z M 196.230469 210.527344 C 198.296875 211.332031 200.210938 212.402344 201.933594 213.703125 C 201.589844 213.667969 201.28125 213.667969 200.9375 213.667969 C 194.390625 213.4375 187.382812 215.351562 180.988281 219.066406 C 180.453125 216.230469 181.179688 213.550781 183.09375 211.023438 C 183.632812 210.296875 184.28125 209.609375 185.007812 208.957031 C 188.761719 208.574219 192.628906 209.109375 196.230469 210.527344 Z M 183.632812 205.664062 C 181.21875 206.007812 178.84375 206.660156 176.585938 207.65625 C 174.097656 208.726562 171.835938 210.144531 169.808594 211.867188 C 169.308594 212.289062 168.8125 212.746094 168.351562 213.207031 C 168.238281 213.320312 168.121094 213.4375 167.96875 213.589844 C 167.664062 213.894531 167.355469 214.242188 167.050781 214.585938 L 167.050781 200.148438 C 172.488281 199.730469 178.039062 199.460938 183.632812 199.382812 Z M 168.773438 217.917969 C 169.234375 219.640625 169.882812 221.441406 170.6875 223.277344 C 171.109375 224.195312 171.53125 225.117188 172.027344 226.035156 C 171.300781 226.761719 170.613281 227.527344 170 228.292969 C 169.195312 227.414062 168.3125 226.6875 167.355469 226.109375 C 166.554688 225.652344 165.75 225.308594 164.90625 225.117188 C 165.019531 224.734375 165.175781 224.351562 165.328125 223.96875 C 166.171875 221.785156 167.320312 219.714844 168.773438 217.917969 Z M 167.816406 231.089844 C 166.324219 233.273438 165.136719 235.53125 164.253906 237.828125 C 164.253906 237.867188 164.21875 237.90625 164.21875 237.90625 C 163.527344 234.804688 163.453125 231.585938 164.027344 228.445312 C 165.019531 228.714844 166.4375 229.367188 167.816406 231.089844 Z M 159.394531 254.828125 C 159.007812 254.5625 158.664062 254.292969 158.28125 254.027344 C 158.089844 253.910156 157.9375 253.757812 157.785156 253.644531 C 152.421875 249.699219 147.40625 245.257812 142.8125 240.433594 L 142.8125 203.214844 C 148.210938 202.257812 153.765625 201.453125 159.394531 200.839844 Z M 135.117188 231.585938 C 134.542969 230.859375 134.003906 230.132812 133.429688 229.40625 C 133.125 228.984375 132.78125 228.523438 132.472656 228.101562 C 127.957031 221.859375 124.089844 215.238281 120.832031 208.34375 C 125.429688 207.003906 130.175781 205.777344 135.078125 204.707031 L 135.078125 231.585938 Z M 239.804688 231.585938 L 239.804688 204.707031 C 244.707031 205.777344 249.492188 206.964844 254.046875 208.34375 C 250.832031 215.238281 246.925781 221.859375 242.40625 228.101562 C 241.605469 229.289062 240.722656 230.4375 239.804688 231.585938 Z M 187.460938 195.515625 C 147.523438 195.515625 109.921875 204.363281 85.910156 219.296875 L 85.910156 182.152344 C 109.230469 166.796875 147.0625 157.683594 187.460938 157.683594 C 227.855469 157.683594 265.726562 166.835938 289.007812 182.152344 L 289.007812 219.296875 C 265 204.363281 227.398438 195.515625 187.460938 195.515625 Z M 274.609375 232.699219 L 292.875 226.378906 L 292.875 200.648438 C 301.183594 203.75 308.613281 207.347656 314.96875 211.292969 L 299.804688 220.40625 L 313.78125 247.824219 C 302.984375 241.621094 289.621094 236.449219 274.609375 232.699219 Z M 274.609375 232.699219 " fill-opacity="1" fill-rule="nonzero"/></g><path fill="#fff9ef" d="M 274.917969 124.523438 L 274.6875 123.53125 L 187.460938 92.054688 L 100.269531 123.53125 L 100.042969 124.523438 C 97.667969 134.75 96.441406 145.316406 96.441406 155.960938 C 96.441406 161.207031 96.75 166.378906 97.285156 171.46875 C 98.472656 170.894531 99.695312 170.359375 100.960938 169.824219 C 100.5 165.265625 100.269531 160.632812 100.269531 155.960938 C 100.269531 145.96875 101.382812 136.050781 103.527344 126.441406 L 187.5 96.152344 L 271.472656 126.441406 C 273.652344 136.050781 274.726562 146.007812 274.726562 155.960938 C 274.726562 160.632812 274.496094 165.226562 274.035156 169.824219 C 275.300781 170.359375 276.523438 170.933594 277.710938 171.46875 C 278.285156 166.339844 278.554688 161.167969 278.554688 155.960938 C 278.515625 145.316406 277.328125 134.75 274.917969 124.523438 Z M 274.917969 124.523438 " fill-opacity="1" fill-rule="nonzero"/><path fill="#fff9ef" d="M 150.664062 264.515625 C 161.765625 272.636719 173.980469 278.800781 186.886719 282.820312 L 187.460938 283.011719 L 188.035156 282.820312 C 200.976562 278.761719 213.152344 272.597656 224.257812 264.515625 C 235.210938 256.515625 244.859375 246.828125 252.898438 235.722656 C 258.183594 228.410156 262.703125 220.636719 266.378906 212.554688 C 265.191406 212.097656 264.003906 211.675781 262.777344 211.214844 C 259.21875 218.988281 254.890625 226.457031 249.796875 233.464844 C 241.988281 244.261719 232.605469 253.679688 222 261.414062 C 211.390625 269.152344 199.789062 275.085938 187.460938 278.992188 C 175.128906 275.085938 163.527344 269.152344 152.921875 261.414062 C 142.316406 253.644531 132.933594 244.261719 125.121094 233.464844 C 120.027344 226.457031 115.703125 218.988281 112.140625 211.214844 C 110.914062 211.636719 109.730469 212.097656 108.542969 212.554688 C 112.21875 220.675781 116.734375 228.410156 122.019531 235.722656 C 130.0625 246.828125 139.710938 256.515625 150.664062 264.515625 Z M 150.664062 264.515625 " fill-opacity="1" fill-rule="nonzero"/><path fill="#bcbec0" d="M 254.085938 208.34375 C 249.492188 207.003906 244.742188 205.777344 239.84375 204.707031 L 239.84375 231.585938 C 240.722656 230.4375 241.605469 229.289062 242.484375 228.101562 C 246.964844 221.859375 250.871094 215.238281 254.085938 208.34375 Z M 254.085938 208.34375 " fill-opacity="1" fill-rule="nonzero"/><path fill="#bcbec0" d="M 230.730469 241.925781 C 231.1875 241.464844 231.6875 240.96875 232.144531 240.46875 L 232.144531 203.214844 C 226.746094 202.257812 221.195312 201.453125 215.527344 200.839844 L 215.527344 254.828125 C 215.910156 254.5625 216.253906 254.292969 216.636719 254.027344 C 221.652344 250.386719 226.363281 246.328125 230.730469 241.925781 Z M 230.730469 241.925781 " fill-opacity="1" fill-rule="nonzero"/><path fill="#bcbec0" d="M 183.632812 259.769531 C 182.902344 259.65625 182.175781 259.539062 181.449219 259.386719 C 181.140625 259.308594 180.875 259.234375 180.566406 259.15625 C 179.496094 258.886719 178.460938 258.542969 177.425781 258.121094 C 173.980469 256.78125 170.917969 254.792969 168.3125 252.226562 C 167.855469 251.765625 167.433594 251.308594 167.011719 250.847656 L 167.011719 259.847656 C 172.335938 263.023438 177.886719 265.742188 183.59375 267.964844 L 183.59375 259.769531 Z M 183.632812 259.769531 " fill-opacity="1" fill-rule="nonzero"/><path fill="#bcbec0" d="M 157.785156 253.679688 C 157.976562 253.796875 158.128906 253.949219 158.28125 254.0625 C 158.664062 254.332031 159.007812 254.601562 159.394531 254.867188 L 159.394531 200.878906 C 153.726562 201.488281 148.171875 202.292969 142.8125 203.25 L 142.8125 240.46875 C 147.40625 245.296875 152.421875 249.699219 157.785156 253.679688 Z M 157.785156 253.679688 " fill-opacity="1" fill-rule="nonzero"/><path fill="#bcbec0" d="M 207.90625 259.847656 L 207.90625 250.847656 C 207.601562 251.191406 207.292969 251.5 206.988281 251.84375 C 206.070312 252.800781 205.035156 253.679688 204 254.484375 C 203.542969 254.828125 203.082031 255.175781 202.625 255.480469 C 201.28125 256.359375 199.867188 257.128906 198.371094 257.777344 C 196.113281 258.773438 193.738281 259.425781 191.328125 259.769531 L 191.328125 268 C 196.535156 265.972656 201.589844 263.558594 206.453125 260.726562 C 206.910156 260.421875 207.410156 260.152344 207.90625 259.847656 Z M 207.90625 259.847656 " fill-opacity="1" fill-rule="nonzero"/><path fill="#bcbec0" d="M 167.050781 214.585938 C 167.355469 214.242188 167.664062 213.933594 167.96875 213.589844 C 168.085938 213.476562 168.199219 213.359375 168.351562 213.207031 C 168.8125 212.746094 169.308594 212.289062 169.808594 211.867188 C 171.835938 210.144531 174.132812 208.726562 176.585938 207.65625 C 178.84375 206.660156 181.21875 206.007812 183.632812 205.664062 L 183.632812 199.382812 C 178.039062 199.460938 172.488281 199.730469 167.050781 200.148438 Z M 167.050781 214.585938 " fill-opacity="1" fill-rule="nonzero"/><path fill="#bcbec0" d="M 206.605469 213.207031 C 207.066406 213.667969 207.484375 214.125 207.90625 214.585938 L 207.90625 200.148438 C 202.46875 199.730469 196.917969 199.460938 191.328125 199.382812 L 191.328125 205.664062 C 193.433594 205.96875 195.5 206.507812 197.53125 207.308594 C 200.898438 208.652344 203.964844 210.640625 206.605469 213.207031 Z M 206.605469 213.207031 " fill-opacity="1" fill-rule="nonzero"/><path fill="#bcbec0" d="M 133.46875 229.40625 C 134.003906 230.132812 134.578125 230.859375 135.15625 231.585938 L 135.15625 204.707031 C 130.253906 205.777344 125.464844 206.964844 120.910156 208.34375 C 124.125 215.238281 127.992188 221.859375 132.550781 228.101562 C 132.820312 228.523438 133.125 228.984375 133.46875 229.40625 Z M 133.46875 229.40625 " fill-opacity="1" fill-rule="nonzero"/><path fill="#fff9ef" d="M 82.082031 200.6875 C 73.773438 203.789062 66.34375 207.386719 59.988281 211.332031 L 75.152344 220.40625 L 61.175781 247.824219 C 71.9375 241.621094 85.335938 236.449219 100.347656 232.734375 L 82.082031 226.417969 Z M 82.082031 200.6875 " fill-opacity="1" fill-rule="nonzero"/><path fill="#fff9ef" d="M 314.96875 211.332031 C 308.613281 207.347656 301.183594 203.789062 292.875 200.6875 L 292.875 226.417969 L 274.609375 232.734375 C 289.621094 236.488281 302.984375 241.621094 313.78125 247.824219 L 299.804688 220.40625 Z M 314.96875 211.332031 " fill-opacity="1" fill-rule="nonzero"/><path fill="#fff9ef" d="M 289.046875 182.152344 C 265.726562 166.796875 227.894531 157.683594 187.5 157.683594 C 147.101562 157.683594 109.230469 166.835938 85.949219 182.152344 L 85.949219 219.296875 C 109.996094 204.363281 147.597656 195.515625 187.5 195.515625 C 227.4375 195.515625 265 204.363281 289.046875 219.296875 Z M 289.046875 182.152344 " fill-opacity="1" fill-rule="nonzero"/><path fill="#ebb95b" d="M 177.964844 210.832031 C 175.628906 211.828125 173.523438 213.207031 171.644531 214.855469 C 171.992188 216.996094 172.757812 219.371094 173.867188 221.859375 C 174.132812 222.433594 174.402344 223.007812 174.671875 223.546875 C 175.703125 222.664062 176.777344 221.824219 177.886719 221.058594 C 176.816406 217.304688 177.3125 213.628906 179.378906 210.296875 C 178.882812 210.449219 178.421875 210.640625 177.964844 210.832031 Z M 177.964844 210.832031 " fill-opacity="1" fill-rule="nonzero"/><path fill="#ebb95b" d="M 206.261719 217.992188 C 199.214844 215.925781 190.140625 217.609375 182.214844 222.359375 C 183.132812 223.660156 184.625 224.734375 186.886719 225.691406 C 189.71875 226.914062 193.320312 227.757812 196.765625 228.5625 C 200.324219 229.40625 204 230.285156 207.027344 231.546875 C 208.75 232.277344 210.167969 233.117188 211.277344 234.074219 C 211.507812 230.363281 210.855469 226.609375 209.324219 223.164062 C 208.519531 221.324219 207.484375 219.601562 206.261719 217.992188 Z M 206.261719 217.992188 " fill-opacity="1" fill-rule="nonzero"/><path fill="#ebb95b" d="M 184.972656 208.996094 C 184.242188 209.644531 183.59375 210.335938 183.054688 211.0625 C 181.140625 213.550781 180.414062 216.269531 180.949219 219.105469 C 187.34375 215.351562 194.351562 213.4375 200.898438 213.703125 C 201.246094 213.703125 201.589844 213.742188 201.894531 213.742188 C 200.171875 212.441406 198.257812 211.371094 196.191406 210.566406 C 192.628906 209.109375 188.761719 208.574219 184.972656 208.996094 Z M 184.972656 208.996094 " fill-opacity="1" fill-rule="nonzero"/><path fill="#ebb95b" d="M 164.867188 225.117188 C 165.710938 225.308594 166.554688 225.652344 167.320312 226.109375 C 168.277344 226.648438 169.15625 227.375 169.960938 228.292969 C 170.613281 227.527344 171.300781 226.761719 171.992188 226.035156 C 171.492188 225.117188 171.070312 224.195312 170.648438 223.277344 C 169.847656 221.441406 169.195312 219.640625 168.734375 217.917969 C 167.28125 219.753906 166.132812 221.785156 165.25 223.96875 C 165.136719 224.351562 165.019531 224.734375 164.867188 225.117188 Z M 164.867188 225.117188 " fill-opacity="1" fill-rule="nonzero"/><path fill="#ebb95b" d="M 169.769531 234.496094 C 168.851562 235.992188 168.085938 237.558594 167.472656 239.128906 C 166.898438 240.625 166.476562 242.15625 166.246094 243.609375 C 168.429688 247.859375 171.800781 251.34375 175.933594 253.605469 C 174.25 250.347656 172.757812 245.679688 171.261719 239.167969 C 170.839844 237.40625 170.34375 235.835938 169.769531 234.496094 Z M 169.769531 234.496094 " fill-opacity="1" fill-rule="nonzero"/><path fill="#ebb95b" d="M 163.988281 228.484375 C 163.414062 231.625 163.488281 234.839844 164.179688 237.941406 C 164.179688 237.90625 164.21875 237.867188 164.21875 237.867188 C 165.097656 235.570312 166.324219 233.273438 167.777344 231.128906 C 166.4375 229.367188 165.019531 228.714844 163.988281 228.484375 Z M 163.988281 228.484375 " fill-opacity="1" fill-rule="nonzero"/><path fill="#ebb95b" d="M 173.828125 229.175781 C 173.214844 229.824219 172.601562 230.515625 172.066406 231.242188 C 173.140625 233.195312 174.019531 235.609375 174.671875 238.363281 C 177.542969 250.808594 180.070312 254.332031 181.984375 255.902344 C 187.039062 257.128906 192.207031 256.667969 196.996094 254.5625 C 197.570312 254.292969 198.144531 254.027344 198.71875 253.757812 C 195.5 251.726562 192.324219 249.355469 189.296875 246.789062 C 182.902344 241.351562 177.582031 235.300781 173.828125 229.175781 Z M 173.828125 229.175781 " fill-opacity="1" fill-rule="nonzero"/><path fill="#ebb95b" d="M 205.648438 234.804688 C 202.890625 233.617188 199.367188 232.8125 195.960938 232.007812 C 192.667969 231.242188 189.257812 230.4375 186.3125 229.289062 C 183.019531 227.988281 180.683594 226.339844 179.304688 224.351562 C 178.269531 225.117188 177.273438 225.882812 176.355469 226.722656 C 179.953125 232.773438 185.164062 238.785156 191.480469 244.183594 C 194.851562 247.054688 198.335938 249.582031 201.894531 251.726562 C 205.34375 249.125 208.023438 245.601562 209.628906 241.503906 C 209.976562 240.585938 210.28125 239.667969 210.550781 238.710938 C 209.785156 237.140625 208.214844 235.875 205.648438 234.804688 Z M 205.648438 234.804688 " fill-opacity="1" fill-rule="nonzero"/><g fill="#fff9ef" fill-opacity="1"><g transform="translate(153.097279, 146.022727)"><g><path d="M 24.578125 -16.875 L 24.578125 -26.015625 L 1.640625 -26.015625 L 1.640625 -20.328125 L 4.453125 -19.59375 L 4.453125 -6.390625 L 1.640625 -5.65625 L 1.640625 0 L 24.609375 0 L 24.609375 -9.109375 L 19.109375 -9.109375 L 18.359375 -6.390625 L 12.125 -6.390625 L 12.125 -10.921875 L 18.359375 -10.921875 L 18.359375 -15.390625 L 12.125 -15.390625 L 12.125 -19.59375 L 18.359375 -19.59375 L 19.109375 -16.875 Z M 24.578125 -16.875 "/></g></g></g><g fill="#fff9ef" fill-opacity="1"><g transform="translate(179.293399, 146.022727)"><g><path d="M 41.9375 -20.328125 L 41.9375 -26.015625 L 31.9375 -26.015625 L 31.9375 -20.328125 L 33.484375 -19.59375 L 30.625 -8.25 L 27.4375 -19.59375 L 29.25 -20.328125 L 29.25 -26.015625 L 15.828125 -26.015625 L 15.828125 -20.328125 L 17.578125 -19.59375 L 14.5 -8.25 L 11.453125 -19.59375 L 13.15625 -20.328125 L 13.15625 -26.015625 L 0.671875 -26.015625 L 0.671875 -20.328125 L 2.9375 -19.59375 L 7.953125 0 L 18.25 0 L 21.484375 -11.484375 L 24.578125 0 L 34.265625 0 L 39.625 -19.59375 Z M 41.9375 -20.328125 "/></g></g></g><g fill="#000000" fill-opacity="1"><g transform="translate(124.701006, 190.80035)"><g><path d="M -0.671875 -5.6875 L 0.046875 -2.65625 L 1.421875 -2.984375 L 2.234375 0.40625 L 4.71875 1.9375 L 10.5625 0.546875 L 11.875 -1.515625 L 8.59375 -15.390625 L 10 -15.71875 L 9.265625 -18.75 L 3.453125 -17.375 L 4.1875 -14.34375 L 5.578125 -14.671875 L 8.53125 -2.1875 L 5.03125 -1.359375 L 4.46875 -3.703125 L 5.859375 -4.03125 L 5.140625 -7.0625 Z M -0.671875 -5.6875 "/></g></g></g><g fill="#000000" fill-opacity="1"><g transform="translate(140.368763, 187.137424)"><g><path d="M 0.609375 -0.265625 L 1.125 2.8125 L 7.015625 1.84375 L 6.5 -1.234375 L 4.890625 -0.96875 L 5 -2.265625 L 9.578125 -3.015625 L 10.109375 -1.828125 L 8.609375 -1.578125 L 9.125 1.5 L 15.15625 0.5 L 14.640625 -2.578125 L 13.109375 -2.328125 L 6.3125 -17.359375 L 3.53125 -16.90625 L 1.890625 -0.46875 Z M 5.890625 -11.375 L 8.28125 -5.921875 L 5.3125 -5.4375 Z M 5.890625 -11.375 "/></g></g></g><g fill="#000000" fill-opacity="1"><g transform="translate(157.702524, 184.28398)"><g><path d="M -0.6875 -16.109375 L -0.421875 -13 L 1 -13.109375 L 2.0625 -0.328125 L 0.640625 -0.21875 L 0.90625 2.890625 L 6.859375 2.40625 L 6.59375 -0.703125 L 5.171875 -0.59375 L 4.53125 -8.28125 L 9.953125 2.265625 L 13.453125 -9.03125 L 14.09375 -1.34375 L 12.65625 -1.21875 L 12.921875 1.890625 L 18.875 1.390625 L 18.609375 -1.71875 L 17.1875 -1.59375 L 16.125 -14.375 L 17.546875 -14.5 L 17.28125 -17.609375 L 13.046875 -17.25 L 9.390625 -5.15625 L 3.375 -16.4375 Z M -0.6875 -16.109375 "/></g></g></g><g fill="#000000" fill-opacity="1"><g transform="translate(179.048989, 182.690351)"><g><path d="M 0.6875 2.96875 L 10.296875 2.875 L 12.234375 0.875 L 12.15625 -6.390625 L 10.765625 -7.796875 L 12.140625 -9.1875 L 12.09375 -14.328125 L 10.125 -16.203125 L 0.5 -16.109375 L 0.53125 -12.984375 L 1.953125 -13 L 2.078125 -0.171875 L 0.65625 -0.15625 Z M 5.078125 -13.03125 L 8.984375 -13.0625 L 9.03125 -9.09375 L 5.125 -9.0625 Z M 9.0625 -5.953125 L 9.109375 -0.234375 L 5.203125 -0.203125 L 5.15625 -5.921875 Z M 9.0625 -5.953125 "/></g></g></g><g fill="#000000" fill-opacity="1"><g transform="translate(194.078682, 182.634541)"><g><path d="M 0.609375 0.9375 L 2.421875 3.09375 L 8.59375 3.40625 L 10.734375 1.4375 L 11.46875 -13.5 L 9.578125 -15.65625 L 3.46875 -15.96875 L 1.34375 -14 Z M 8.296875 -12.59375 L 7.65625 0.21875 L 3.765625 0.03125 L 4.40625 -12.78125 Z M 8.296875 -12.59375 "/></g></g></g><g fill="#000000" fill-opacity="1"><g transform="translate(207.655761, 183.333805)"><g><path d="M 2.421875 -15.9375 L 2.078125 -12.828125 L 3.484375 -12.671875 L 2.078125 0.078125 L 0.671875 -0.078125 L 0.328125 3.03125 L 6.25 3.671875 L 6.59375 0.5625 L 5.1875 0.421875 L 5.6875 -4.046875 L 6.765625 -3.9375 L 9.609375 4.046875 L 12.75 4.390625 L 13.09375 1.28125 L 11.78125 1.140625 L 10.015625 -3.578125 L 11.046875 -3.46875 L 12.84375 -4.96875 L 13.734375 -13.109375 L 12.296875 -14.859375 Z M 10.46875 -11.90625 L 9.890625 -6.71875 L 6.015625 -7.140625 L 6.59375 -12.328125 Z M 10.46875 -11.90625 "/></g></g></g><g fill="#000000" fill-opacity="1"><g transform="translate(223.496103, 185.164091)"><g><path d="M 0.671875 -0.046875 L 0.125 3.03125 L 11.515625 5.03125 L 12.734375 -1.9375 L 9.671875 -2.484375 L 9 1.40625 L 5.15625 0.734375 L 6.140625 -4.953125 L 9.984375 -4.28125 L 10.53125 -7.375 L 6.6875 -8.046875 L 7.359375 -11.90625 L 11.203125 -11.234375 L 10.75 -8.65625 L 13.8125 -8.109375 L 14.8125 -13.765625 L 3.421875 -15.765625 L 2.875 -12.6875 L 4.28125 -12.4375 L 2.078125 0.203125 Z M 0.671875 -0.046875 "/></g></g></g><g fill="#000000" fill-opacity="1"><g transform="translate(238.273876, 187.816762)"><g><path d="M 0.671875 0 L -0.046875 3.046875 L 11.203125 5.734375 L 12.84375 -1.15625 L 9.8125 -1.875 L 8.890625 1.96875 L 5.09375 1.046875 L 6.4375 -4.578125 L 10.234375 -3.65625 L 10.96875 -6.703125 L 7.171875 -7.625 L 8.078125 -11.421875 L 11.875 -10.5 L 11.265625 -7.96875 L 14.296875 -7.25 L 15.640625 -12.828125 L 4.390625 -15.515625 L 3.65625 -12.46875 L 5.03125 -12.140625 L 2.046875 0.328125 Z M 0.671875 0 "/></g></g></g></svg>