<svg xmlns="http://www.w3.org/2000/svg" xmlns:xlink="http://www.w3.org/1999/xlink" width="500" zoomAndPan="magnify" viewBox="0 0 375 374.999991" height="500" preserveAspectRatio="xMidYMid meet" version="1.0"><defs><g/><clipPath id="6f949db295"><path d="M 128 79.425781 L 185 79.425781 L 185 145 L 128 145 Z M 128 79.425781 " clip-rule="nonzero"/></clipPath><clipPath id="a65b0f86f7"><path d="M 140 108 L 262.5 108 L 262.5 172 L 140 172 Z M 140 108 " clip-rule="nonzero"/></clipPath></defs><path fill="#ef7116" d="M 141.839844 192.46875 C 141.558594 185.226562 144.113281 177.863281 148.964844 172.464844 C 145.128906 168.09375 141.601562 163.457031 138.417969 158.59375 C 138.546875 158.789062 132.265625 166.359375 131.691406 167.191406 C 129.296875 170.671875 127.144531 174.363281 125.613281 178.308594 C 124.25 181.824219 123.128906 185.921875 123.535156 189.734375 C 123.960938 193.726562 126.96875 197.039062 129.34375 200.097656 C 131.878906 203.355469 134.757812 206.339844 137.8125 209.109375 C 140.914062 211.917969 144.203125 214.507812 147.574219 216.988281 C 149.210938 218.195312 150.871094 219.371094 152.542969 220.535156 C 153.816406 221.425781 156.75 222.679688 157.546875 223.980469 C 152.160156 215.234375 144.71875 207.34375 142.46875 197.320312 C 142.113281 195.722656 141.90625 194.101562 141.839844 192.46875 Z M 146.167969 212.753906 C 137.804688 206.753906 131.53125 199.84375 126.425781 191 L 125.945312 190.183594 L 125.945312 190.09375 C 126.175781 182.050781 130.34375 172.742188 138.003906 163.167969 L 138.261719 162.84375 L 138.496094 163.1875 C 140.617188 166.28125 142.992188 169.367188 145.546875 172.359375 L 145.707031 172.550781 L 145.554688 172.746094 C 140.957031 178.773438 138.855469 185.464844 139.304688 192.628906 C 139.714844 199.121094 142.171875 205.75 146.601562 212.332031 L 147.554688 213.746094 Z M 146.167969 212.753906 " fill-opacity="1" fill-rule="nonzero"/><path fill="#ef7116" d="M 136.242188 158.601562 C 136.675781 158.101562 137.117188 157.605469 137.5625 157.113281 C 135.835938 153.855469 134.109375 150.597656 132.382812 147.339844 C 133.15625 148.800781 124.582031 151.882812 123.640625 152.0625 C 121.933594 152.382812 120.171875 152.449219 118.445312 152.230469 C 116.726562 152.015625 114.984375 151.039062 113.382812 150.921875 C 112.496094 156.804688 113.976562 163.902344 115.191406 169.667969 C 116.496094 175.890625 118.476562 181.972656 121.097656 187.761719 C 123.796875 177.042969 129.03125 166.976562 136.242188 158.601562 Z M 120.882812 180.089844 C 121.214844 179.113281 119.199219 175.246094 118.875 174.128906 C 118.253906 171.980469 117.726562 169.804688 117.300781 167.609375 C 116.5 163.480469 115.566406 158.707031 116.007812 154.5 C 118.699219 154.5625 121.164062 155.296875 123.96875 154.757812 C 126.710938 154.230469 129.332031 153.019531 131.460938 151.207031 C 132.464844 153.085938 133.472656 154.964844 134.476562 156.84375 C 128.46875 163.59375 123.820312 171.546875 120.882812 180.089844 Z M 120.882812 180.089844 " fill-opacity="1" fill-rule="nonzero"/><g clip-path="url(#6f949db295)"><path fill="#ef7116" d="M 130.742188 137.417969 C 131.375 139.8125 132.109375 142.183594 132.898438 144.527344 C 142.84375 133.082031 146.679688 117.605469 154.84375 104.824219 C 161.945312 93.707031 172.382812 84.75 184.453125 79.417969 C 173.988281 82.824219 164.070312 88.542969 156.992188 96.972656 C 146.722656 109.207031 143.292969 125.878906 133.957031 138.839844 C 130.550781 129.941406 130.089844 119.945312 132.667969 110.777344 C 133.316406 108.472656 134.160156 106.195312 135.515625 104.226562 C 136.777344 102.398438 138.433594 100.886719 140.117188 99.4375 C 145.6875 94.640625 151.667969 90.320312 157.976562 86.550781 C 151.769531 88.621094 145.898438 91.699219 140.664062 95.632812 C 131.046875 102.859375 127.746094 114.003906 128.664062 125.75 C 128.972656 129.695312 129.726562 133.589844 130.742188 137.417969 Z M 130.742188 137.417969 " fill-opacity="1" fill-rule="nonzero"/></g><path fill="#ef7116" d="M 121.011719 150.765625 C 121.710938 150.777344 122.414062 150.730469 123.105469 150.625 C 126.429688 150.117188 129.527344 148.238281 131.511719 145.519531 C 127.179688 133.597656 125.847656 120.597656 127.671875 108.046875 C 127.671875 109.203125 125.953125 111.398438 125.410156 112.449219 C 124.519531 114.183594 123.628906 115.921875 122.738281 117.65625 C 121.121094 120.800781 119.539062 123.886719 118.285156 127.199219 C 115.726562 133.949219 114.128906 141.0625 113.558594 148.257812 C 115.699219 149.84375 118.351562 150.71875 121.011719 150.765625 Z M 116.269531 146.695312 C 116.757812 141.820312 117.742188 136.992188 119.199219 132.3125 C 119.9375 129.9375 120.785156 127.582031 121.785156 125.300781 C 122.496094 123.675781 124.457031 121.230469 124.542969 119.515625 C 124.109375 128.089844 125.523438 136.75 128.660156 144.742188 C 125.757812 148.277344 120.183594 149.261719 116.25 146.925781 C 116.253906 146.847656 116.261719 146.773438 116.269531 146.695312 Z M 116.269531 146.695312 " fill-opacity="1" fill-rule="nonzero"/><path fill="#ef7116" d="M 139.40625 142.589844 C 141.042969 140.449219 142.550781 138.203125 143.914062 135.875 C 149.074219 127.058594 152.132812 117.121094 157.433594 108.386719 C 164.382812 96.9375 175.183594 87.875 187.664062 83.015625 C 175 86.367188 163.644531 94.441406 156.320312 105.300781 C 151.144531 112.980469 148.003906 121.757812 144.007812 130.054688 C 142.003906 134.203125 139.785156 138.277344 136.996094 141.953125 C 136.351562 142.800781 135.636719 143.589844 134.980469 144.421875 C 133.859375 145.851562 133.796875 145.746094 134.558594 147.46875 C 135.769531 150.210938 137.234375 152.871094 138.566406 155.558594 C 152.917969 141.480469 169.132812 129.164062 187.175781 120.292969 C 205.214844 111.421875 225.128906 106.0625 245.234375 105.996094 C 229.03125 103.132812 212.339844 107.222656 197.101562 113.421875 C 175.550781 122.183594 155.757812 135.242188 139.21875 151.605469 C 137.917969 149.816406 136.550781 147.605469 137.339844 145.539062 C 137.597656 144.859375 138.070312 144.28125 138.527344 143.714844 C 138.824219 143.34375 139.117188 142.96875 139.40625 142.589844 Z M 139.40625 142.589844 " fill-opacity="1" fill-rule="nonzero"/><path fill="#ef7116" d="M 217.433594 216.183594 C 208.300781 214.109375 199.246094 211.65625 190.824219 207.621094 C 174.773438 199.925781 161.941406 186.949219 149.960938 173.789062 C 150.183594 174.035156 145.847656 180.285156 145.449219 181.113281 C 144.230469 183.648438 143.625 186.464844 143.5 189.265625 C 143.242188 195.011719 144.957031 200.78125 147.667969 205.800781 C 151.441406 212.789062 157.078125 218.761719 163.835938 222.9375 C 157.972656 216.640625 151.996094 210.171875 148.640625 202.25 C 145.285156 194.328125 145.023438 184.53125 150.203125 177.664062 C 159.832031 188.914062 170.460938 199.605469 183.34375 206.902344 C 196.113281 214.136719 210.808594 217.792969 225.484375 217.941406 C 222.804688 217.367188 220.113281 216.792969 217.433594 216.183594 Z M 217.433594 216.183594 " fill-opacity="1" fill-rule="nonzero"/><path fill="#ef7116" d="M 234.363281 166.441406 C 223.023438 166.339844 211.628906 165.125 200.371094 163.6875 C 191.765625 162.585938 183.082031 161.359375 174.441406 162.175781 C 168.734375 162.714844 163.027344 164.21875 158.019531 167.054688 C 156.554688 167.882812 151.550781 170.503906 151.476562 172.371094 C 151.410156 174.109375 156.203125 178.425781 157.351562 179.75 C 165.523438 189.148438 175.148438 197.355469 186.066406 203.394531 C 199.765625 210.96875 215.558594 215.035156 231.164062 213.863281 C 201.308594 211.996094 172.734375 196.148438 154.875 172.152344 C 161.617188 167.128906 170.171875 165.042969 178.570312 164.683594 C 186.972656 164.324219 195.34375 165.5625 203.6875 166.59375 C 223.117188 168.996094 243.296875 170.195312 261.859375 163.96875 C 252.804688 165.859375 243.605469 166.523438 234.363281 166.441406 Z M 234.363281 166.441406 " fill-opacity="1" fill-rule="nonzero"/><g clip-path="url(#a65b0f86f7)"><path fill="#ef7116" d="M 153.058594 147.945312 C 162.949219 139.550781 174.039062 132.542969 185.542969 126.496094 C 205.035156 116.25 226.941406 108.492188 248.773438 111.386719 C 235.339844 106.679688 220.441406 109.539062 206.957031 114.097656 C 183.28125 122.101562 161.269531 135.34375 143.664062 153.140625 C 142.761719 154.050781 140.71875 155.496094 140.265625 156.683594 C 139.6875 158.203125 141.644531 159.855469 142.664062 161.214844 C 145.132812 164.507812 147.597656 167.804688 150.066406 171.097656 C 155.015625 165.800781 162.027344 162.769531 169.164062 161.503906 C 176.300781 160.242188 183.625 160.613281 190.84375 161.257812 C 202.875 162.332031 214.851562 164.160156 226.925781 164.542969 C 239 164.929688 251.320312 163.8125 262.496094 159.230469 C 242.699219 163.925781 221.984375 161.894531 201.789062 159.394531 C 192.859375 158.292969 183.855469 157.097656 174.886719 157.855469 C 165.914062 158.609375 156.847656 161.492188 150.222656 167.585938 C 147.527344 164.445312 145.058594 161.105469 142.84375 157.609375 C 146.066406 154.191406 149.484375 150.980469 153.058594 147.945312 Z M 153.058594 147.945312 " fill-opacity="1" fill-rule="nonzero"/></g><g fill="#1f2de4" fill-opacity="1"><g transform="translate(119.208946, 267.433694)"><g><path d="M 0.359375 -32.328125 L 5.375 -32.328125 L 8.9375 -6.71875 L 9.140625 -6.71875 L 12.71875 -32.328125 L 17.71875 -32.328125 L 11.828125 0 L 6.234375 0 Z M 0.359375 -32.328125 "/></g></g></g><g fill="#1f2de4" fill-opacity="1"><g transform="translate(141.389124, 267.433694)"><g><path d="M 2.765625 -32.328125 L 14.75 -32.328125 L 14.75 -28.46875 L 7.671875 -28.46875 L 7.671875 -18.796875 L 13.140625 -18.796875 L 13.140625 -14.9375 L 7.671875 -14.9375 L 7.671875 -3.859375 L 14.9375 -3.859375 L 14.9375 0 L 2.765625 0 Z M 2.765625 -32.328125 "/></g></g></g><g fill="#1f2de4" fill-opacity="1"><g transform="translate(161.203946, 267.433694)"><g><path d="M 2.765625 -32.328125 L 8.078125 -32.328125 C 8.679688 -32.328125 9.347656 -32.300781 10.078125 -32.25 C 10.804688 -32.195312 11.53125 -32.070312 12.25 -31.875 C 12.976562 -31.6875 13.679688 -31.394531 14.359375 -31 C 15.035156 -30.613281 15.632812 -30.078125 16.15625 -29.390625 C 16.675781 -28.710938 17.09375 -27.859375 17.40625 -26.828125 C 17.726562 -25.796875 17.890625 -24.550781 17.890625 -23.09375 L 17.890625 -22.28125 C 17.890625 -19.820312 17.535156 -17.816406 16.828125 -16.265625 C 16.117188 -14.722656 15.078125 -13.609375 13.703125 -12.921875 L 18.890625 0 L 13.703125 0 L 9.40625 -12.09375 L 7.578125 -12.09375 L 7.578125 0 L 2.765625 0 Z M 8.3125 -15.640625 C 9.164062 -15.640625 9.890625 -15.734375 10.484375 -15.921875 C 11.078125 -16.109375 11.554688 -16.425781 11.921875 -16.875 C 12.285156 -17.320312 12.550781 -17.914062 12.71875 -18.65625 C 12.882812 -19.394531 12.96875 -20.304688 12.96875 -21.390625 L 12.96875 -23.9375 C 12.96875 -24.769531 12.890625 -25.488281 12.734375 -26.09375 C 12.585938 -26.707031 12.332031 -27.207031 11.96875 -27.59375 C 11.613281 -27.988281 11.140625 -28.28125 10.546875 -28.46875 C 9.953125 -28.65625 9.207031 -28.75 8.3125 -28.75 L 7.578125 -28.75 L 7.578125 -15.640625 Z M 8.3125 -15.640625 "/></g></g></g><g fill="#1f2de4" fill-opacity="1"><g transform="translate(185.143939, 267.433694)"><g><path d="M 2.765625 -32.328125 L 6.734375 -32.328125 L 14.578125 -10.6875 L 14.6875 -10.6875 C 14.644531 -11.195312 14.59375 -11.757812 14.53125 -12.375 C 14.46875 -13 14.410156 -13.703125 14.359375 -14.484375 C 14.316406 -15.273438 14.273438 -16.164062 14.234375 -17.15625 C 14.191406 -18.15625 14.171875 -19.28125 14.171875 -20.53125 L 14.171875 -32.328125 L 18.5625 -32.328125 L 18.5625 0 L 14.5625 0 L 6.75 -21.0625 L 6.609375 -21.0625 C 6.640625 -20.5 6.6875 -19.882812 6.75 -19.21875 C 6.820312 -18.5625 6.878906 -17.785156 6.921875 -16.890625 C 6.972656 -15.992188 7.015625 -14.945312 7.046875 -13.75 C 7.085938 -12.5625 7.109375 -11.144531 7.109375 -9.5 L 7.109375 0 L 2.765625 0 Z M 2.765625 -32.328125 "/></g></g></g><g fill="#1f2de4" fill-opacity="1"><g transform="translate(210.578838, 267.433694)"><g><path d="M 9.921875 0.28125 C 9.398438 0.28125 8.835938 0.238281 8.234375 0.15625 C 7.628906 0.0703125 7.03125 -0.0976562 6.4375 -0.359375 C 5.84375 -0.617188 5.269531 -0.992188 4.71875 -1.484375 C 4.175781 -1.972656 3.691406 -2.613281 3.265625 -3.40625 C 2.835938 -4.195312 2.5 -5.175781 2.25 -6.34375 C 2 -7.507812 1.875 -8.90625 1.875 -10.53125 L 1.875 -21.96875 C 1.875 -23.601562 2.003906 -24.992188 2.265625 -26.140625 C 2.523438 -27.296875 2.867188 -28.269531 3.296875 -29.0625 C 3.722656 -29.851562 4.207031 -30.484375 4.75 -30.953125 C 5.300781 -31.421875 5.875 -31.773438 6.46875 -32.015625 C 7.070312 -32.265625 7.671875 -32.425781 8.265625 -32.5 C 8.859375 -32.570312 9.410156 -32.609375 9.921875 -32.609375 C 10.398438 -32.609375 10.929688 -32.570312 11.515625 -32.5 C 12.097656 -32.4375 12.679688 -32.285156 13.265625 -32.046875 C 13.859375 -31.816406 14.429688 -31.472656 14.984375 -31.015625 C 15.546875 -30.554688 16.039062 -29.929688 16.46875 -29.140625 C 16.894531 -28.347656 17.238281 -27.367188 17.5 -26.203125 C 17.757812 -25.035156 17.890625 -23.625 17.890625 -21.96875 L 17.890625 -10.53125 C 17.890625 -8.925781 17.753906 -7.546875 17.484375 -6.390625 C 17.222656 -5.234375 16.878906 -4.253906 16.453125 -3.453125 C 16.023438 -2.648438 15.53125 -2.003906 14.96875 -1.515625 C 14.40625 -1.035156 13.828125 -0.660156 13.234375 -0.390625 C 12.648438 -0.117188 12.066406 0.0546875 11.484375 0.140625 C 10.910156 0.234375 10.390625 0.28125 9.921875 0.28125 Z M 9.921875 -3.40625 C 10.398438 -3.40625 10.816406 -3.488281 11.171875 -3.65625 C 11.535156 -3.820312 11.832031 -4.101562 12.0625 -4.5 C 12.300781 -4.90625 12.476562 -5.4375 12.59375 -6.09375 C 12.71875 -6.757812 12.78125 -7.597656 12.78125 -8.609375 L 12.78125 -23.3125 C 12.78125 -24.351562 12.71875 -25.21875 12.59375 -25.90625 C 12.476562 -26.601562 12.300781 -27.160156 12.0625 -27.578125 C 11.832031 -28.003906 11.535156 -28.304688 11.171875 -28.484375 C 10.816406 -28.660156 10.398438 -28.75 9.921875 -28.75 C 9.429688 -28.75 9 -28.660156 8.625 -28.484375 C 8.257812 -28.304688 7.957031 -28.003906 7.71875 -27.578125 C 7.476562 -27.160156 7.296875 -26.601562 7.171875 -25.90625 C 7.054688 -25.21875 7 -24.351562 7 -23.3125 L 7 -8.609375 C 7 -7.597656 7.054688 -6.757812 7.171875 -6.09375 C 7.296875 -5.4375 7.476562 -4.90625 7.71875 -4.5 C 7.957031 -4.101562 8.257812 -3.820312 8.625 -3.65625 C 9 -3.488281 9.429688 -3.40625 9.921875 -3.40625 Z M 9.921875 -3.40625 "/></g></g></g><g fill="#1f2de4" fill-opacity="1"><g transform="translate(234.443138, 267.433694)"><g><path d="M 2.765625 -32.328125 L 6.734375 -32.328125 L 14.578125 -10.6875 L 14.6875 -10.6875 C 14.644531 -11.195312 14.59375 -11.757812 14.53125 -12.375 C 14.46875 -13 14.410156 -13.703125 14.359375 -14.484375 C 14.316406 -15.273438 14.273438 -16.164062 14.234375 -17.15625 C 14.191406 -18.15625 14.171875 -19.28125 14.171875 -20.53125 L 14.171875 -32.328125 L 18.5625 -32.328125 L 18.5625 0 L 14.5625 0 L 6.75 -21.0625 L 6.609375 -21.0625 C 6.640625 -20.5 6.6875 -19.882812 6.75 -19.21875 C 6.820312 -18.5625 6.878906 -17.785156 6.921875 -16.890625 C 6.972656 -15.992188 7.015625 -14.945312 7.046875 -13.75 C 7.085938 -12.5625 7.109375 -11.144531 7.109375 -9.5 L 7.109375 0 L 2.765625 0 Z M 2.765625 -32.328125 "/></g></g></g><g fill="#000000" fill-opacity="1"><g transform="translate(150.608784, 285.377969)"><g><path d="M 2.328125 0 L 2.328125 -5.09375 L 0.28125 -5.09375 L 0.28125 -6.46875 L 5.84375 -6.46875 L 5.84375 -5.09375 L 3.796875 -5.09375 L 3.796875 0 Z M 2.328125 0 "/></g></g></g><g fill="#000000" fill-opacity="1"><g transform="translate(164.115179, 285.377969)"><g><path d="M 0.78125 0 L 0.78125 -6.46875 L 3.53125 -6.46875 C 4.03125 -6.46875 4.457031 -6.375 4.8125 -6.1875 C 5.175781 -6.007812 5.457031 -5.753906 5.65625 -5.421875 C 5.851562 -5.097656 5.953125 -4.703125 5.953125 -4.234375 C 5.953125 -3.765625 5.84375 -3.359375 5.625 -3.015625 C 5.414062 -2.671875 5.117188 -2.414062 4.734375 -2.25 L 6.0625 0 L 4.375 0 L 3.21875 -2.015625 L 2.25 -2.015625 L 2.25 0 Z M 2.21875 -3.25 L 3.34375 -3.25 C 3.707031 -3.25 3.984375 -3.332031 4.171875 -3.5 C 4.367188 -3.675781 4.46875 -3.921875 4.46875 -4.234375 C 4.46875 -4.546875 4.367188 -4.785156 4.171875 -4.953125 C 3.984375 -5.117188 3.707031 -5.203125 3.34375 -5.203125 L 2.21875 -5.203125 Z M 2.21875 -3.25 "/></g></g></g><g fill="#000000" fill-opacity="1"><g transform="translate(177.99971, 285.377969)"><g><path d="M 0.078125 0 L 2.65625 -6.46875 L 4.09375 -6.46875 L 6.65625 0 L 5.09375 0 L 4.65625 -1.125 L 2.09375 -1.125 L 1.65625 0 Z M 2.46875 -2.265625 L 4.28125 -2.265625 L 3.375 -4.640625 Z M 2.46875 -2.265625 "/></g></g></g><g fill="#000000" fill-opacity="1"><g transform="translate(192.124027, 285.377969)"><g><path d="M 2.5625 0 L 0.078125 -6.46875 L 1.65625 -6.46875 L 2.515625 -4.171875 L 3.296875 -2.109375 L 4.921875 -6.46875 L 6.484375 -6.46875 L 4 0 Z M 2.5625 0 "/></g></g></g><g fill="#000000" fill-opacity="1"><g transform="translate(206.082339, 285.377969)"><g><path d="M 0.78125 0 L 0.78125 -6.46875 L 5.03125 -6.46875 L 5.03125 -5.234375 L 2.234375 -5.234375 L 2.234375 -3.890625 L 4.78125 -3.890625 L 4.78125 -2.65625 L 2.234375 -2.65625 L 2.234375 -1.25 L 5.125 -1.25 L 5.125 0 Z M 0.78125 0 "/></g></g></g><g fill="#000000" fill-opacity="1"><g transform="translate(219.063051, 285.377969)"><g><path d="M 0.78125 0 L 0.78125 -6.46875 L 2.25 -6.46875 L 2.25 -1.375 L 5.0625 -1.375 L 5.0625 0 Z M 0.78125 0 "/></g></g></g><g fill="#000000" fill-opacity="1"><g transform="translate(123.66738, 298.127968)"><g><path d="M 0.78125 0 L 0.78125 -6.46875 L 3.671875 -6.46875 C 4.328125 -6.46875 4.847656 -6.304688 5.234375 -5.984375 C 5.617188 -5.671875 5.8125 -5.253906 5.8125 -4.734375 C 5.8125 -4.429688 5.742188 -4.15625 5.609375 -3.90625 C 5.472656 -3.65625 5.285156 -3.460938 5.046875 -3.328125 C 5.347656 -3.191406 5.582031 -2.988281 5.75 -2.71875 C 5.925781 -2.457031 6.015625 -2.15625 6.015625 -1.8125 C 6.015625 -1.445312 5.921875 -1.128906 5.734375 -0.859375 C 5.546875 -0.585938 5.285156 -0.375 4.953125 -0.21875 C 4.628906 -0.0703125 4.25 0 3.8125 0 Z M 2.21875 -1.15625 L 3.59375 -1.15625 C 3.882812 -1.15625 4.109375 -1.222656 4.265625 -1.359375 C 4.421875 -1.492188 4.5 -1.6875 4.5 -1.9375 C 4.5 -2.1875 4.421875 -2.378906 4.265625 -2.515625 C 4.109375 -2.648438 3.882812 -2.71875 3.59375 -2.71875 L 2.21875 -2.71875 Z M 2.21875 -3.828125 L 3.4375 -3.828125 C 3.726562 -3.828125 3.945312 -3.890625 4.09375 -4.015625 C 4.25 -4.148438 4.328125 -4.335938 4.328125 -4.578125 C 4.328125 -4.804688 4.25 -4.984375 4.09375 -5.109375 C 3.945312 -5.234375 3.726562 -5.296875 3.4375 -5.296875 L 2.21875 -5.296875 Z M 2.21875 -3.828125 "/></g></g></g><g fill="#000000" fill-opacity="1"><g transform="translate(137.413574, 298.127968)"><g><path d="M 0.078125 0 L 2.65625 -6.46875 L 4.09375 -6.46875 L 6.65625 0 L 5.09375 0 L 4.65625 -1.125 L 2.09375 -1.125 L 1.65625 0 Z M 2.46875 -2.265625 L 4.28125 -2.265625 L 3.375 -4.640625 Z M 2.46875 -2.265625 "/></g></g></g><g fill="#000000" fill-opacity="1"><g transform="translate(151.537892, 298.127968)"><g><path d="M 3.03125 0.125 C 2.488281 0.125 2.019531 0.0351562 1.625 -0.140625 C 1.238281 -0.316406 0.9375 -0.566406 0.71875 -0.890625 C 0.507812 -1.222656 0.40625 -1.613281 0.40625 -2.0625 L 1.84375 -2.0625 C 1.84375 -1.75 1.945312 -1.503906 2.15625 -1.328125 C 2.375 -1.160156 2.660156 -1.078125 3.015625 -1.078125 C 3.328125 -1.078125 3.570312 -1.132812 3.75 -1.25 C 3.925781 -1.375 4.015625 -1.546875 4.015625 -1.765625 C 4.015625 -1.992188 3.90625 -2.175781 3.6875 -2.3125 C 3.476562 -2.457031 3.144531 -2.578125 2.6875 -2.671875 C 1.925781 -2.835938 1.363281 -3.082031 1 -3.40625 C 0.644531 -3.726562 0.46875 -4.15625 0.46875 -4.6875 C 0.46875 -5.269531 0.679688 -5.734375 1.109375 -6.078125 C 1.535156 -6.421875 2.125 -6.59375 2.875 -6.59375 C 3.382812 -6.59375 3.828125 -6.503906 4.203125 -6.328125 C 4.578125 -6.148438 4.867188 -5.898438 5.078125 -5.578125 C 5.285156 -5.265625 5.390625 -4.890625 5.390625 -4.453125 L 3.96875 -4.453125 C 3.96875 -4.742188 3.867188 -4.972656 3.671875 -5.140625 C 3.484375 -5.304688 3.222656 -5.390625 2.890625 -5.390625 C 2.578125 -5.390625 2.332031 -5.328125 2.15625 -5.203125 C 1.976562 -5.085938 1.890625 -4.921875 1.890625 -4.703125 C 1.890625 -4.503906 1.988281 -4.335938 2.1875 -4.203125 C 2.382812 -4.066406 2.726562 -3.941406 3.21875 -3.828125 C 4.03125 -3.640625 4.613281 -3.382812 4.96875 -3.0625 C 5.320312 -2.738281 5.5 -2.320312 5.5 -1.8125 C 5.5 -1.207031 5.28125 -0.734375 4.84375 -0.390625 C 4.40625 -0.046875 3.800781 0.125 3.03125 0.125 Z M 3.03125 0.125 "/></g></g></g><g fill="#000000" fill-opacity="1"><g transform="translate(164.841394, 298.127968)"><g><path d="M 0.78125 0 L 0.78125 -6.46875 L 2.25 -6.46875 L 2.25 -3.984375 L 2.796875 -3.984375 C 3.160156 -3.984375 3.425781 -4.039062 3.59375 -4.15625 C 3.757812 -4.269531 3.898438 -4.476562 4.015625 -4.78125 L 4.625 -6.46875 L 6.21875 -6.46875 L 5.3125 -4.171875 C 5.238281 -3.953125 5.148438 -3.757812 5.046875 -3.59375 C 4.941406 -3.4375 4.828125 -3.296875 4.703125 -3.171875 L 6.453125 0 L 4.734375 0 L 3.359375 -2.625 C 3.296875 -2.613281 3.238281 -2.609375 3.1875 -2.609375 C 3.132812 -2.609375 3.078125 -2.609375 3.015625 -2.609375 L 2.25 -2.609375 L 2.25 0 Z M 0.78125 0 "/></g></g></g><g fill="#000000" fill-opacity="1"><g transform="translate(178.938042, 298.127968)"><g><path d="M 0.78125 0 L 0.78125 -6.46875 L 5.03125 -6.46875 L 5.03125 -5.234375 L 2.234375 -5.234375 L 2.234375 -3.890625 L 4.78125 -3.890625 L 4.78125 -2.65625 L 2.234375 -2.65625 L 2.234375 -1.25 L 5.125 -1.25 L 5.125 0 Z M 0.78125 0 "/></g></g></g><g fill="#000000" fill-opacity="1"><g transform="translate(191.918754, 298.127968)"><g><path d="M 2.328125 0 L 2.328125 -5.09375 L 0.28125 -5.09375 L 0.28125 -6.46875 L 5.84375 -6.46875 L 5.84375 -5.09375 L 3.796875 -5.09375 L 3.796875 0 Z M 2.328125 0 "/></g></g></g><g fill="#000000" fill-opacity="1"><g transform="translate(205.42515, 298.127968)"><g><path d="M 0.78125 0 L 0.78125 -6.46875 L 3.671875 -6.46875 C 4.328125 -6.46875 4.847656 -6.304688 5.234375 -5.984375 C 5.617188 -5.671875 5.8125 -5.253906 5.8125 -4.734375 C 5.8125 -4.429688 5.742188 -4.15625 5.609375 -3.90625 C 5.472656 -3.65625 5.285156 -3.460938 5.046875 -3.328125 C 5.347656 -3.191406 5.582031 -2.988281 5.75 -2.71875 C 5.925781 -2.457031 6.015625 -2.15625 6.015625 -1.8125 C 6.015625 -1.445312 5.921875 -1.128906 5.734375 -0.859375 C 5.546875 -0.585938 5.285156 -0.375 4.953125 -0.21875 C 4.628906 -0.0703125 4.25 0 3.8125 0 Z M 2.21875 -1.15625 L 3.59375 -1.15625 C 3.882812 -1.15625 4.109375 -1.222656 4.265625 -1.359375 C 4.421875 -1.492188 4.5 -1.6875 4.5 -1.9375 C 4.5 -2.1875 4.421875 -2.378906 4.265625 -2.515625 C 4.109375 -2.648438 3.882812 -2.71875 3.59375 -2.71875 L 2.21875 -2.71875 Z M 2.21875 -3.828125 L 3.4375 -3.828125 C 3.726562 -3.828125 3.945312 -3.890625 4.09375 -4.015625 C 4.25 -4.148438 4.328125 -4.335938 4.328125 -4.578125 C 4.328125 -4.804688 4.25 -4.984375 4.09375 -5.109375 C 3.945312 -5.234375 3.726562 -5.296875 3.4375 -5.296875 L 2.21875 -5.296875 Z M 2.21875 -3.828125 "/></g></g></g><g fill="#000000" fill-opacity="1"><g transform="translate(219.171346, 298.127968)"><g><path d="M 0.078125 0 L 2.65625 -6.46875 L 4.09375 -6.46875 L 6.65625 0 L 5.09375 0 L 4.65625 -1.125 L 2.09375 -1.125 L 1.65625 0 Z M 2.46875 -2.265625 L 4.28125 -2.265625 L 3.375 -4.640625 Z M 2.46875 -2.265625 "/></g></g></g><g fill="#000000" fill-opacity="1"><g transform="translate(233.29566, 298.127968)"><g><path d="M 0.78125 0 L 0.78125 -6.46875 L 2.25 -6.46875 L 2.25 -1.375 L 5.0625 -1.375 L 5.0625 0 Z M 0.78125 0 "/></g></g></g><g fill="#000000" fill-opacity="1"><g transform="translate(245.999688, 298.127968)"><g><path d="M 0.78125 0 L 0.78125 -6.46875 L 2.25 -6.46875 L 2.25 -1.375 L 5.0625 -1.375 L 5.0625 0 Z M 0.78125 0 "/></g></g></g></svg>