<svg xmlns="http://www.w3.org/2000/svg" xmlns:xlink="http://www.w3.org/1999/xlink" width="500" zoomAndPan="magnify" viewBox="0 0 375 374.999991" height="500" preserveAspectRatio="xMidYMid meet" version="1.0"><defs><g/><clipPath id="4809d5adb1"><path d="M 96 7.984375 L 183 7.984375 L 183 109 L 96 109 Z M 96 7.984375 " clip-rule="nonzero"/></clipPath><clipPath id="758c88f7ee"><path d="M 114 53 L 303.792969 53 L 303.792969 151 L 114 151 Z M 114 53 " clip-rule="nonzero"/></clipPath></defs><path fill="#ef7116" d="M 116.753906 183.132812 C 116.3125 171.910156 120.273438 160.503906 127.792969 152.132812 C 121.847656 145.367188 116.382812 138.179688 111.449219 130.644531 C 111.648438 130.949219 101.917969 142.679688 101.027344 143.96875 C 97.316406 149.359375 93.984375 155.078125 91.613281 161.195312 C 89.5 166.640625 87.761719 172.988281 88.390625 178.890625 C 89.046875 185.082031 93.710938 190.214844 97.390625 194.949219 C 101.316406 200 105.777344 204.621094 110.515625 208.914062 C 115.316406 213.265625 120.417969 217.277344 125.632812 221.117188 C 128.175781 222.988281 130.746094 224.8125 133.332031 226.617188 C 135.3125 227.996094 139.851562 229.941406 141.089844 231.953125 C 132.746094 218.398438 121.210938 206.175781 117.730469 190.644531 C 117.175781 188.175781 116.851562 185.660156 116.753906 183.132812 Z M 123.460938 214.558594 C 110.5 205.261719 100.78125 194.558594 92.867188 180.855469 L 92.125 179.589844 L 92.128906 179.453125 C 92.480469 166.992188 98.941406 152.566406 110.808594 137.734375 L 111.207031 137.234375 L 111.570312 137.761719 C 114.859375 142.554688 118.535156 147.335938 122.492188 151.976562 L 122.742188 152.269531 L 122.507812 152.574219 C 115.382812 161.914062 112.125 172.277344 112.828125 183.382812 C 113.460938 193.441406 117.265625 203.710938 124.128906 213.90625 L 125.605469 216.09375 Z M 123.460938 214.558594 " fill-opacity="1" fill-rule="nonzero"/><path fill="#ef7116" d="M 108.082031 130.660156 C 108.75 129.882812 109.433594 129.113281 110.125 128.351562 C 107.449219 123.304688 104.777344 118.253906 102.101562 113.207031 C 103.300781 115.472656 90.015625 120.246094 88.554688 120.523438 C 85.90625 121.027344 83.179688 121.125 80.503906 120.789062 C 77.839844 120.453125 75.144531 118.9375 72.664062 118.761719 C 71.289062 127.875 73.585938 138.875 75.460938 147.804688 C 77.488281 157.445312 80.554688 166.867188 84.617188 175.839844 C 88.792969 159.234375 96.90625 143.632812 108.082031 130.660156 Z M 84.28125 163.949219 C 84.800781 162.441406 81.671875 156.449219 81.171875 154.71875 C 80.207031 151.390625 79.390625 148.015625 78.730469 144.613281 C 77.488281 138.214844 76.046875 130.824219 76.726562 124.304688 C 80.898438 124.398438 84.714844 125.539062 89.058594 124.703125 C 93.3125 123.886719 97.371094 122.011719 100.671875 119.199219 C 102.230469 122.109375 103.785156 125.023438 105.34375 127.933594 C 96.039062 138.390625 88.832031 150.710938 84.28125 163.949219 Z M 84.28125 163.949219 " fill-opacity="1" fill-rule="nonzero"/><g clip-path="url(#4809d5adb1)"><path fill="#ef7116" d="M 99.558594 97.839844 C 100.539062 101.546875 101.675781 105.21875 102.902344 108.851562 C 118.308594 91.117188 124.253906 67.136719 136.898438 47.339844 C 147.902344 30.109375 164.078125 16.234375 182.777344 7.976562 C 166.558594 13.25 151.195312 22.113281 140.230469 35.175781 C 124.320312 54.125 119.003906 79.960938 104.539062 100.039062 C 99.261719 86.253906 98.546875 70.769531 102.539062 56.558594 C 103.542969 52.992188 104.855469 49.464844 106.957031 46.410156 C 108.90625 43.578125 111.476562 41.238281 114.082031 38.992188 C 122.710938 31.558594 131.980469 24.867188 141.757812 19.023438 C 132.136719 22.230469 123.039062 27.003906 114.933594 33.09375 C 100.027344 44.289062 94.914062 61.558594 96.339844 79.757812 C 96.816406 85.875 97.984375 91.902344 99.558594 97.839844 Z M 99.558594 97.839844 " fill-opacity="1" fill-rule="nonzero"/></g><path fill="#ef7116" d="M 84.484375 118.515625 C 85.566406 118.53125 86.652344 118.460938 87.722656 118.296875 C 92.878906 117.511719 97.675781 114.601562 100.75 110.390625 C 94.039062 91.917969 91.972656 71.777344 94.800781 52.328125 C 94.800781 54.121094 92.136719 57.519531 91.296875 59.152344 C 89.917969 61.839844 88.535156 64.527344 87.15625 67.21875 C 84.652344 72.09375 82.203125 76.875 80.257812 82.003906 C 76.296875 92.460938 73.820312 103.484375 72.933594 114.632812 C 76.253906 117.089844 80.359375 118.445312 84.484375 118.515625 Z M 77.136719 112.210938 C 77.890625 104.65625 79.414062 97.179688 81.671875 89.929688 C 82.820312 86.246094 84.132812 82.597656 85.679688 79.0625 C 86.78125 76.542969 89.820312 72.753906 89.957031 70.097656 C 89.28125 83.382812 91.46875 96.804688 96.328125 109.183594 C 91.835938 114.664062 83.199219 116.183594 77.101562 112.566406 C 77.113281 112.449219 77.125 112.332031 77.136719 112.210938 Z M 77.136719 112.210938 " fill-opacity="1" fill-rule="nonzero"/><path fill="#ef7116" d="M 112.980469 105.851562 C 115.519531 102.53125 117.851562 99.054688 119.964844 95.449219 C 127.960938 81.785156 132.695312 66.390625 140.914062 52.859375 C 151.679688 35.121094 168.414062 21.074219 187.75 13.546875 C 168.128906 18.738281 150.535156 31.25 139.1875 48.078125 C 131.167969 59.972656 126.304688 73.574219 120.109375 86.425781 C 117.007812 92.855469 113.570312 99.164062 109.246094 104.863281 C 108.25 106.179688 107.140625 107.398438 106.125 108.691406 C 104.386719 110.90625 104.289062 110.738281 105.46875 113.410156 C 107.347656 117.660156 109.617188 121.78125 111.679688 125.945312 C 133.917969 104.132812 159.042969 85.050781 186.992188 71.304688 C 214.941406 57.558594 245.796875 49.253906 276.945312 49.152344 C 251.84375 44.71875 225.984375 51.054688 202.375 60.65625 C 168.984375 74.234375 138.316406 94.464844 112.691406 119.816406 C 110.675781 117.042969 108.558594 113.621094 109.78125 110.417969 C 110.183594 109.363281 110.914062 108.472656 111.621094 107.589844 C 112.078125 107.015625 112.535156 106.433594 112.980469 105.851562 Z M 112.980469 105.851562 " fill-opacity="1" fill-rule="nonzero"/><path fill="#ef7116" d="M 233.875 219.875 C 219.722656 216.660156 205.699219 212.863281 192.644531 206.605469 C 167.777344 194.6875 147.898438 174.582031 129.335938 154.191406 C 129.679688 154.574219 122.964844 164.253906 122.347656 165.535156 C 120.453125 169.464844 119.515625 173.828125 119.324219 178.171875 C 118.925781 187.070312 121.582031 196.007812 125.78125 203.789062 C 131.632812 214.617188 140.363281 223.871094 150.832031 230.339844 C 141.75 220.582031 132.492188 210.558594 127.292969 198.285156 C 122.09375 186.011719 121.6875 170.832031 129.710938 160.191406 C 144.625 177.625 161.09375 194.1875 181.058594 205.496094 C 200.84375 216.703125 223.613281 222.367188 246.351562 222.597656 C 242.195312 221.707031 238.027344 220.816406 233.875 219.875 Z M 233.875 219.875 " fill-opacity="1" fill-rule="nonzero"/><path fill="#ef7116" d="M 260.101562 142.804688 C 242.535156 142.648438 224.878906 140.765625 207.441406 138.535156 C 194.105469 136.832031 180.648438 134.929688 167.265625 136.195312 C 158.421875 137.03125 149.582031 139.359375 141.820312 143.753906 C 139.554688 145.035156 131.800781 149.101562 131.6875 151.992188 C 131.578125 154.6875 139.003906 161.375 140.789062 163.425781 C 153.445312 177.988281 168.359375 190.707031 185.277344 200.058594 C 206.496094 211.792969 230.96875 218.089844 255.148438 216.277344 C 208.890625 213.386719 164.621094 188.832031 136.945312 151.652344 C 147.394531 143.871094 160.648438 140.640625 173.660156 140.082031 C 186.675781 139.523438 199.652344 141.445312 212.578125 143.042969 C 242.683594 146.761719 273.945312 148.617188 302.707031 138.976562 C 288.679688 141.902344 274.421875 142.929688 260.101562 142.804688 Z M 260.101562 142.804688 " fill-opacity="1" fill-rule="nonzero"/><g clip-path="url(#758c88f7ee)"><path fill="#ef7116" d="M 134.132812 114.148438 C 149.457031 101.140625 166.640625 90.28125 184.460938 80.914062 C 214.667969 65.039062 248.601562 53.019531 282.429688 57.507812 C 261.617188 50.210938 238.535156 54.644531 217.644531 61.707031 C 180.964844 74.105469 146.855469 94.625 119.578125 122.195312 C 118.179688 123.605469 115.011719 125.84375 114.3125 127.683594 C 113.417969 130.039062 116.453125 132.601562 118.027344 134.707031 C 121.851562 139.8125 125.675781 144.914062 129.5 150.019531 C 137.167969 141.8125 148.027344 137.117188 159.089844 135.15625 C 170.148438 133.199219 181.492188 133.773438 192.679688 134.773438 C 211.320312 136.4375 229.875 139.269531 248.582031 139.863281 C 267.285156 140.460938 286.378906 138.734375 303.695312 131.632812 C 273.019531 138.90625 240.925781 135.757812 209.636719 131.890625 C 195.796875 130.179688 181.847656 128.332031 167.949219 129.5 C 154.054688 130.671875 140.007812 135.136719 129.742188 144.578125 C 125.5625 139.710938 121.738281 134.539062 118.308594 129.117188 C 123.300781 123.828125 128.597656 118.847656 134.132812 114.148438 Z M 134.132812 114.148438 " fill-opacity="1" fill-rule="nonzero"/></g><g fill="#1f2de4" fill-opacity="1"><g transform="translate(68.483841, 303.275855)"><g><path d="M 0.625 -56.328125 L 9.359375 -56.328125 L 15.5625 -11.703125 L 15.9375 -11.703125 L 22.15625 -56.328125 L 30.875 -56.328125 L 20.609375 0 L 10.84375 0 Z M 0.625 -56.328125 "/></g></g></g><g fill="#1f2de4" fill-opacity="1"><g transform="translate(107.142633, 303.275855)"><g><path d="M 4.8125 -56.328125 L 25.6875 -56.328125 L 25.6875 -49.609375 L 13.359375 -49.609375 L 13.359375 -32.75 L 22.890625 -32.75 L 22.890625 -26.015625 L 13.359375 -26.015625 L 13.359375 -6.734375 L 26.015625 -6.734375 L 26.015625 0 L 4.8125 0 Z M 4.8125 -56.328125 "/></g></g></g><g fill="#1f2de4" fill-opacity="1"><g transform="translate(141.67869, 303.275855)"><g><path d="M 4.8125 -56.328125 L 14.078125 -56.328125 C 15.140625 -56.328125 16.300781 -56.28125 17.5625 -56.1875 C 18.820312 -56.101562 20.082031 -55.890625 21.34375 -55.546875 C 22.613281 -55.210938 23.835938 -54.703125 25.015625 -54.015625 C 26.191406 -53.335938 27.234375 -52.40625 28.140625 -51.21875 C 29.054688 -50.03125 29.789062 -48.539062 30.34375 -46.75 C 30.894531 -44.957031 31.171875 -42.785156 31.171875 -40.234375 L 31.171875 -38.8125 C 31.171875 -34.53125 30.550781 -31.039062 29.3125 -28.34375 C 28.082031 -25.65625 26.269531 -23.71875 23.875 -22.53125 L 32.921875 0 L 23.875 0 L 16.390625 -21.078125 L 13.1875 -21.078125 L 13.1875 0 L 4.8125 0 Z M 14.484375 -27.25 C 15.972656 -27.25 17.234375 -27.410156 18.265625 -27.734375 C 19.304688 -28.066406 20.144531 -28.625 20.78125 -29.40625 C 21.414062 -30.1875 21.875 -31.21875 22.15625 -32.5 C 22.445312 -33.789062 22.59375 -35.378906 22.59375 -37.265625 L 22.59375 -41.71875 C 22.59375 -43.175781 22.457031 -44.429688 22.1875 -45.484375 C 21.925781 -46.535156 21.484375 -47.398438 20.859375 -48.078125 C 20.234375 -48.765625 19.40625 -49.269531 18.375 -49.59375 C 17.34375 -49.925781 16.046875 -50.09375 14.484375 -50.09375 L 13.1875 -50.09375 L 13.1875 -27.25 Z M 14.484375 -27.25 "/></g></g></g><g fill="#1f2de4" fill-opacity="1"><g transform="translate(183.404796, 303.275855)"><g><path d="M 4.8125 -56.328125 L 11.734375 -56.328125 L 25.390625 -18.640625 L 25.59375 -18.640625 C 25.53125 -19.515625 25.441406 -20.488281 25.328125 -21.5625 C 25.222656 -22.644531 25.125 -23.875 25.03125 -25.25 C 24.945312 -26.625 24.867188 -28.175781 24.796875 -29.90625 C 24.734375 -31.644531 24.703125 -33.601562 24.703125 -35.78125 L 24.703125 -56.328125 L 32.359375 -56.328125 L 32.359375 0 L 25.359375 0 L 11.78125 -36.703125 L 11.515625 -36.703125 C 11.578125 -35.710938 11.660156 -34.640625 11.765625 -33.484375 C 11.878906 -32.335938 11.976562 -30.984375 12.0625 -29.421875 C 12.15625 -27.859375 12.234375 -26.035156 12.296875 -23.953125 C 12.367188 -21.878906 12.40625 -19.414062 12.40625 -16.5625 L 12.40625 0 L 4.8125 0 Z M 4.8125 -56.328125 "/></g></g></g><g fill="#1f2de4" fill-opacity="1"><g transform="translate(227.73647, 303.275855)"><g><path d="M 17.28125 0.5 C 16.382812 0.5 15.40625 0.425781 14.34375 0.28125 C 13.289062 0.132812 12.242188 -0.164062 11.203125 -0.625 C 10.171875 -1.082031 9.175781 -1.734375 8.21875 -2.578125 C 7.269531 -3.429688 6.425781 -4.550781 5.6875 -5.9375 C 4.945312 -7.320312 4.359375 -9.03125 3.921875 -11.0625 C 3.484375 -13.09375 3.265625 -15.519531 3.265625 -18.34375 L 3.265625 -38.296875 C 3.265625 -41.128906 3.488281 -43.550781 3.9375 -45.5625 C 4.394531 -47.570312 4.992188 -49.265625 5.734375 -50.640625 C 6.484375 -52.015625 7.335938 -53.109375 8.296875 -53.921875 C 9.253906 -54.734375 10.253906 -55.351562 11.296875 -55.78125 C 12.335938 -56.21875 13.375 -56.5 14.40625 -56.625 C 15.445312 -56.757812 16.40625 -56.828125 17.28125 -56.828125 C 18.113281 -56.828125 19.039062 -56.765625 20.0625 -56.640625 C 21.09375 -56.523438 22.117188 -56.265625 23.140625 -55.859375 C 24.160156 -55.453125 25.15625 -54.847656 26.125 -54.046875 C 27.09375 -53.242188 27.945312 -52.15625 28.6875 -50.78125 C 29.4375 -49.40625 30.035156 -47.695312 30.484375 -45.65625 C 30.941406 -43.625 31.171875 -41.171875 31.171875 -38.296875 L 31.171875 -18.34375 C 31.171875 -15.550781 30.9375 -13.144531 30.46875 -11.125 C 30.007812 -9.113281 29.40625 -7.410156 28.65625 -6.015625 C 27.914062 -4.617188 27.054688 -3.5 26.078125 -2.65625 C 25.097656 -1.8125 24.09375 -1.148438 23.0625 -0.671875 C 22.039062 -0.203125 21.023438 0.109375 20.015625 0.265625 C 19.003906 0.421875 18.09375 0.5 17.28125 0.5 Z M 17.28125 -5.9375 C 18.113281 -5.9375 18.84375 -6.078125 19.46875 -6.359375 C 20.101562 -6.648438 20.625 -7.144531 21.03125 -7.84375 C 21.4375 -8.550781 21.742188 -9.484375 21.953125 -10.640625 C 22.160156 -11.796875 22.265625 -13.25 22.265625 -15 L 22.265625 -40.640625 C 22.265625 -42.441406 22.160156 -43.945312 21.953125 -45.15625 C 21.742188 -46.363281 21.4375 -47.332031 21.03125 -48.0625 C 20.625 -48.800781 20.101562 -49.320312 19.46875 -49.625 C 18.84375 -49.9375 18.113281 -50.09375 17.28125 -50.09375 C 16.425781 -50.09375 15.675781 -49.9375 15.03125 -49.625 C 14.394531 -49.320312 13.867188 -48.800781 13.453125 -48.0625 C 13.035156 -47.332031 12.722656 -46.363281 12.515625 -45.15625 C 12.304688 -43.945312 12.203125 -42.441406 12.203125 -40.640625 L 12.203125 -15 C 12.203125 -13.25 12.304688 -11.796875 12.515625 -10.640625 C 12.722656 -9.484375 13.035156 -8.550781 13.453125 -7.84375 C 13.867188 -7.144531 14.394531 -6.648438 15.03125 -6.359375 C 15.675781 -6.078125 16.425781 -5.9375 17.28125 -5.9375 Z M 17.28125 -5.9375 "/></g></g></g><g fill="#1f2de4" fill-opacity="1"><g transform="translate(269.330659, 303.275855)"><g><path d="M 4.8125 -56.328125 L 11.734375 -56.328125 L 25.390625 -18.640625 L 25.59375 -18.640625 C 25.53125 -19.515625 25.441406 -20.488281 25.328125 -21.5625 C 25.222656 -22.644531 25.125 -23.875 25.03125 -25.25 C 24.945312 -26.625 24.867188 -28.175781 24.796875 -29.90625 C 24.734375 -31.644531 24.703125 -33.601562 24.703125 -35.78125 L 24.703125 -56.328125 L 32.359375 -56.328125 L 32.359375 0 L 25.359375 0 L 11.78125 -36.703125 L 11.515625 -36.703125 C 11.578125 -35.710938 11.660156 -34.640625 11.765625 -33.484375 C 11.878906 -32.335938 11.976562 -30.984375 12.0625 -29.421875 C 12.15625 -27.859375 12.234375 -26.035156 12.296875 -23.953125 C 12.367188 -21.878906 12.40625 -19.414062 12.40625 -16.5625 L 12.40625 0 L 4.8125 0 Z M 4.8125 -56.328125 "/></g></g></g><g fill="#000000" fill-opacity="1"><g transform="translate(123.574551, 338.477791)"><g><path d="M 4.03125 0 L 4.03125 -8.8125 L 0.484375 -8.8125 L 0.484375 -11.203125 L 10.125 -11.203125 L 10.125 -8.8125 L 6.578125 -8.8125 L 6.578125 0 Z M 4.03125 0 "/></g></g></g><g fill="#000000" fill-opacity="1"><g transform="translate(146.979986, 338.477791)"><g><path d="M 1.34375 0 L 1.34375 -11.203125 L 6.125 -11.203125 C 6.976562 -11.203125 7.71875 -11.046875 8.34375 -10.734375 C 8.976562 -10.421875 9.460938 -9.976562 9.796875 -9.40625 C 10.140625 -8.832031 10.3125 -8.144531 10.3125 -7.34375 C 10.3125 -6.519531 10.125 -5.8125 9.75 -5.21875 C 9.382812 -4.632812 8.863281 -4.191406 8.1875 -3.890625 L 10.515625 0 L 7.5625 0 L 5.5625 -3.484375 L 3.890625 -3.484375 L 3.890625 0 Z M 3.859375 -5.625 L 5.796875 -5.625 C 6.421875 -5.625 6.898438 -5.769531 7.234375 -6.0625 C 7.578125 -6.363281 7.75 -6.785156 7.75 -7.328125 C 7.75 -7.867188 7.578125 -8.285156 7.234375 -8.578125 C 6.898438 -8.878906 6.421875 -9.03125 5.796875 -9.03125 L 3.859375 -9.03125 Z M 3.859375 -5.625 "/></g></g></g><g fill="#000000" fill-opacity="1"><g transform="translate(171.041258, 338.477791)"><g><path d="M 0.140625 0 L 4.59375 -11.203125 L 7.09375 -11.203125 L 11.53125 0 L 8.8125 0 L 8.0625 -1.9375 L 3.609375 -1.9375 L 2.859375 0 Z M 4.265625 -3.9375 L 7.421875 -3.9375 L 5.84375 -8.03125 Z M 4.265625 -3.9375 "/></g></g></g><g fill="#000000" fill-opacity="1"><g transform="translate(195.518435, 338.477791)"><g><path d="M 4.453125 0 L 0.140625 -11.203125 L 2.875 -11.203125 L 4.375 -7.21875 L 5.71875 -3.65625 L 8.53125 -11.203125 L 11.25 -11.203125 L 6.9375 0 Z M 4.453125 0 "/></g></g></g><g fill="#000000" fill-opacity="1"><g transform="translate(219.707673, 338.477791)"><g><path d="M 1.34375 0 L 1.34375 -11.203125 L 8.703125 -11.203125 L 8.703125 -9.0625 L 3.875 -9.0625 L 3.875 -6.734375 L 8.265625 -6.734375 L 8.265625 -4.609375 L 3.875 -4.609375 L 3.875 -2.15625 L 8.875 -2.15625 L 8.875 0 Z M 1.34375 0 "/></g></g></g><g fill="#000000" fill-opacity="1"><g transform="translate(242.20132, 338.477791)"><g><path d="M 1.34375 0 L 1.34375 -11.203125 L 3.890625 -11.203125 L 3.890625 -2.390625 L 8.78125 -2.390625 L 8.78125 0 Z M 1.34375 0 "/></g></g></g><g fill="#000000" fill-opacity="1"><g transform="translate(76.887054, 360.227789)"><g><path d="M 1.34375 0 L 1.34375 -11.203125 L 6.359375 -11.203125 C 7.492188 -11.203125 8.394531 -10.925781 9.0625 -10.375 C 9.738281 -9.832031 10.078125 -9.101562 10.078125 -8.1875 C 10.078125 -7.664062 9.957031 -7.191406 9.71875 -6.765625 C 9.488281 -6.335938 9.160156 -6.003906 8.734375 -5.765625 C 9.265625 -5.523438 9.675781 -5.175781 9.96875 -4.71875 C 10.269531 -4.257812 10.421875 -3.734375 10.421875 -3.140625 C 10.421875 -2.503906 10.257812 -1.953125 9.9375 -1.484375 C 9.613281 -1.015625 9.164062 -0.648438 8.59375 -0.390625 C 8.03125 -0.128906 7.367188 0 6.609375 0 Z M 3.859375 -2.015625 L 6.21875 -2.015625 C 6.71875 -2.015625 7.109375 -2.128906 7.390625 -2.359375 C 7.671875 -2.597656 7.8125 -2.929688 7.8125 -3.359375 C 7.8125 -3.785156 7.671875 -4.113281 7.390625 -4.34375 C 7.109375 -4.582031 6.71875 -4.703125 6.21875 -4.703125 L 3.859375 -4.703125 Z M 3.859375 -6.640625 L 5.96875 -6.640625 C 6.457031 -6.640625 6.832031 -6.75 7.09375 -6.96875 C 7.351562 -7.195312 7.484375 -7.515625 7.484375 -7.921875 C 7.484375 -8.328125 7.351562 -8.640625 7.09375 -8.859375 C 6.832031 -9.078125 6.457031 -9.1875 5.96875 -9.1875 L 3.859375 -9.1875 Z M 3.859375 -6.640625 "/></g></g></g><g fill="#000000" fill-opacity="1"><g transform="translate(100.70839, 360.227789)"><g><path d="M 0.140625 0 L 4.59375 -11.203125 L 7.09375 -11.203125 L 11.53125 0 L 8.8125 0 L 8.0625 -1.9375 L 3.609375 -1.9375 L 2.859375 0 Z M 4.265625 -3.9375 L 7.421875 -3.9375 L 5.84375 -8.03125 Z M 4.265625 -3.9375 "/></g></g></g><g fill="#000000" fill-opacity="1"><g transform="translate(125.185564, 360.227789)"><g><path d="M 5.25 0.21875 C 4.3125 0.21875 3.503906 0.0664062 2.828125 -0.234375 C 2.148438 -0.546875 1.625 -0.988281 1.25 -1.5625 C 0.882812 -2.132812 0.703125 -2.800781 0.703125 -3.5625 L 3.203125 -3.5625 C 3.203125 -3.03125 3.382812 -2.613281 3.75 -2.3125 C 4.113281 -2.019531 4.609375 -1.875 5.234375 -1.875 C 5.765625 -1.875 6.179688 -1.976562 6.484375 -2.1875 C 6.796875 -2.394531 6.953125 -2.6875 6.953125 -3.0625 C 6.953125 -3.445312 6.765625 -3.765625 6.390625 -4.015625 C 6.023438 -4.265625 5.445312 -4.472656 4.65625 -4.640625 C 3.34375 -4.921875 2.367188 -5.34375 1.734375 -5.90625 C 1.109375 -6.46875 0.796875 -7.203125 0.796875 -8.109375 C 0.796875 -9.128906 1.171875 -9.9375 1.921875 -10.53125 C 2.671875 -11.125 3.6875 -11.421875 4.96875 -11.421875 C 5.851562 -11.421875 6.617188 -11.269531 7.265625 -10.96875 C 7.921875 -10.664062 8.425781 -10.238281 8.78125 -9.6875 C 9.144531 -9.132812 9.328125 -8.484375 9.328125 -7.734375 L 6.875 -7.734375 C 6.875 -8.234375 6.707031 -8.625 6.375 -8.90625 C 6.050781 -9.195312 5.597656 -9.34375 5.015625 -9.34375 C 4.472656 -9.34375 4.046875 -9.238281 3.734375 -9.03125 C 3.429688 -8.820312 3.28125 -8.53125 3.28125 -8.15625 C 3.28125 -7.8125 3.445312 -7.519531 3.78125 -7.28125 C 4.125 -7.050781 4.722656 -6.835938 5.578125 -6.640625 C 6.984375 -6.304688 7.992188 -5.863281 8.609375 -5.3125 C 9.222656 -4.757812 9.53125 -4.039062 9.53125 -3.15625 C 9.53125 -2.09375 9.148438 -1.265625 8.390625 -0.671875 C 7.628906 -0.078125 6.582031 0.21875 5.25 0.21875 Z M 5.25 0.21875 "/></g></g></g><g fill="#000000" fill-opacity="1"><g transform="translate(148.239084, 360.227789)"><g><path d="M 1.34375 0 L 1.34375 -11.203125 L 3.890625 -11.203125 L 3.890625 -6.890625 L 4.84375 -6.890625 C 5.476562 -6.890625 5.941406 -6.988281 6.234375 -7.1875 C 6.523438 -7.394531 6.765625 -7.757812 6.953125 -8.28125 L 8.015625 -11.203125 L 10.765625 -11.203125 L 9.21875 -7.21875 C 9.082031 -6.851562 8.925781 -6.523438 8.75 -6.234375 C 8.570312 -5.953125 8.367188 -5.703125 8.140625 -5.484375 L 11.171875 0 L 8.203125 0 L 5.8125 -4.546875 C 5.707031 -4.535156 5.609375 -4.53125 5.515625 -4.53125 C 5.429688 -4.53125 5.335938 -4.53125 5.234375 -4.53125 L 3.890625 -4.53125 L 3.890625 0 Z M 1.34375 0 "/></g></g></g><g fill="#000000" fill-opacity="1"><g transform="translate(172.66827, 360.227789)"><g><path d="M 1.34375 0 L 1.34375 -11.203125 L 8.703125 -11.203125 L 8.703125 -9.0625 L 3.875 -9.0625 L 3.875 -6.734375 L 8.265625 -6.734375 L 8.265625 -4.609375 L 3.875 -4.609375 L 3.875 -2.15625 L 8.875 -2.15625 L 8.875 0 Z M 1.34375 0 "/></g></g></g><g fill="#000000" fill-opacity="1"><g transform="translate(195.161917, 360.227789)"><g><path d="M 4.03125 0 L 4.03125 -8.8125 L 0.484375 -8.8125 L 0.484375 -11.203125 L 10.125 -11.203125 L 10.125 -8.8125 L 6.578125 -8.8125 L 6.578125 0 Z M 4.03125 0 "/></g></g></g><g fill="#000000" fill-opacity="1"><g transform="translate(218.567349, 360.227789)"><g><path d="M 1.34375 0 L 1.34375 -11.203125 L 6.359375 -11.203125 C 7.492188 -11.203125 8.394531 -10.925781 9.0625 -10.375 C 9.738281 -9.832031 10.078125 -9.101562 10.078125 -8.1875 C 10.078125 -7.664062 9.957031 -7.191406 9.71875 -6.765625 C 9.488281 -6.335938 9.160156 -6.003906 8.734375 -5.765625 C 9.265625 -5.523438 9.675781 -5.175781 9.96875 -4.71875 C 10.269531 -4.257812 10.421875 -3.734375 10.421875 -3.140625 C 10.421875 -2.503906 10.257812 -1.953125 9.9375 -1.484375 C 9.613281 -1.015625 9.164062 -0.648438 8.59375 -0.390625 C 8.03125 -0.128906 7.367188 0 6.609375 0 Z M 3.859375 -2.015625 L 6.21875 -2.015625 C 6.71875 -2.015625 7.109375 -2.128906 7.390625 -2.359375 C 7.671875 -2.597656 7.8125 -2.929688 7.8125 -3.359375 C 7.8125 -3.785156 7.671875 -4.113281 7.390625 -4.34375 C 7.109375 -4.582031 6.71875 -4.703125 6.21875 -4.703125 L 3.859375 -4.703125 Z M 3.859375 -6.640625 L 5.96875 -6.640625 C 6.457031 -6.640625 6.832031 -6.75 7.09375 -6.96875 C 7.351562 -7.195312 7.484375 -7.515625 7.484375 -7.921875 C 7.484375 -8.328125 7.351562 -8.640625 7.09375 -8.859375 C 6.832031 -9.078125 6.457031 -9.1875 5.96875 -9.1875 L 3.859375 -9.1875 Z M 3.859375 -6.640625 "/></g></g></g><g fill="#000000" fill-opacity="1"><g transform="translate(242.388683, 360.227789)"><g><path d="M 0.140625 0 L 4.59375 -11.203125 L 7.09375 -11.203125 L 11.53125 0 L 8.8125 0 L 8.0625 -1.9375 L 3.609375 -1.9375 L 2.859375 0 Z M 4.265625 -3.9375 L 7.421875 -3.9375 L 5.84375 -8.03125 Z M 4.265625 -3.9375 "/></g></g></g><g fill="#000000" fill-opacity="1"><g transform="translate(266.865853, 360.227789)"><g><path d="M 1.34375 0 L 1.34375 -11.203125 L 3.890625 -11.203125 L 3.890625 -2.390625 L 8.78125 -2.390625 L 8.78125 0 Z M 1.34375 0 "/></g></g></g><g fill="#000000" fill-opacity="1"><g transform="translate(288.879616, 360.227789)"><g><path d="M 1.34375 0 L 1.34375 -11.203125 L 3.890625 -11.203125 L 3.890625 -2.390625 L 8.78125 -2.390625 L 8.78125 0 Z M 1.34375 0 "/></g></g></g></svg>